<svg
  xmlns="http://www.w3.org/2000/svg"
  viewBox="0 0 100 100"
  fill="none"
  stroke="currentColor"
  stroke-width="2.19947"
  stroke-linecap="round"
>
  <path d="M27.7567 47.3057C26.3327 57.383 28.1817 67.624 45.8549 67.9225C45.9885 67.9248 46.1507 67.9318 46.1941 68.0581C46.2885 68.3328 46.3854 69.1295 46.2871 71.3898" />
  <path d="M64.2129 13.3789C69.252 15.0586 71.8885 19.5682 70.1228 24.961C70.0929 25.0522 70.1869 25.1387 70.276 25.1031C74.8289 23.2811 78.1245 26.6321 78.1245 29.9299" />
  <path d="M66.0272 23.9913C57.5593 14.0937 41.8331 15.7094 32.7054 21.352C23.5776 26.9946 20.6633 37.848 22.3129 43.7865C22.7558 45.3811 23.8992 47.6906 25.942 47.6906C30.066 47.6906 31.9336 39.7875 37.207 40.2344C39.9414 40.4661 40.332 42.8223 42.9199 42.8223C43.8477 42.8223 48.7305 42.8223 52.1484 36.5234" />
  <path d="M55.7447 70.2901C55.4698 68.5855 55.2499 67.0299 55.5248 66.7709C55.7958 66.5156 59.5389 65.4281 62.7527 62.08C62.8434 61.9855 62.9691 61.924 63.099 61.9075C72.7283 60.6868 72.1982 50.4437 66.1922 50.9897C65.2548 51.075 64.7919 51.2686 63.6628 52.4194" />
  <path d="M28.2515 86.6211C29.5428 81.3443 31.0565 78.8524 35.0698 75.1839M74.3303 86.6211C73.2527 81.6242 71.8682 79.3251 68.6116 75.7337" />
  <path d="M43.8675 78.3731C41.6131 77.9332 36.3893 76.1186 34.9597 75.0739C31.5137 72.5556 33.695 67.0458 37.4891 66.8809" />
  <path d="M50.7959 79.0879C61.2434 75.3489 68.1504 76.4392 69.1614 75.4588C73.7803 70.9799 70.5361 63.2518 59.9237 64.6814" />
  <path d="M41.7231 76.0637C41.0766 79.4171 40.7994 81.3706 40.5684 85.0815" />
  <path d="M53.2154 76.1187C52.8855 77.8782 52.6655 82.3321 52.9405 84.9165" />
  <path d="M41.3931 71.2248C42.4706 73.116 46.8367 76.1736 47.4966 76.1736C47.7715 76.1736 53.7651 70.675 62.8379 68.1456" />
  <path d="M70.481 29.1051C78.344 32.5142 80.3785 45.4361 73.4502 53.959" />
  <path d="M57.8126 39.0137C56.8778 43.1377 57.8893 47.9215 61.1885 50.165" />
  <ellipse cx="35.4567" cy="50.9766" rx="1.86298" ry="3.02734" fill="currentColor" stroke="none" />
  <ellipse cx="47.3708" cy="50.9766" rx="1.86298" ry="3.02734" fill="currentColor" stroke="none" />
</svg>
