<svg xmlns="http://www.w3.org/2000/svg" viewBox="0 0 20 20" fill="currentColor" role="img">
  <path
    d="M2.17574 17.8473H5.49841C5.67441 17.8473 5.83041 17.7493 5.92841 17.6126L15.0757 2.58265C15.1931 2.38732 15.0564 2.15265 14.8217 2.15265H11.6751C11.5184 2.15265 11.3817 2.23065 11.3037 2.36798L2.01974 17.574C1.96107 17.6913 2.03907 17.8473 2.17574 17.8473ZM13.6297 17.6126L17.9491 10.674C18.0857 10.4586 17.9297 10.1853 17.6757 10.1853H14.5484C14.4311 10.1853 14.3137 10.244 14.2551 10.342L9.81841 17.4373C9.70107 17.6133 9.83774 17.848 10.0531 17.848H13.2391C13.3951 17.8473 13.5511 17.7693 13.6297 17.6126Z" />
</svg>